PathFileType	4	(x/y/z)	A01_SLOW_T0026.trc
DataRate	CameraRate	NumFrames	NumMarkers	Units	OrigDataRate	OrigDataStartFrame	OrigNumFrames
240	240	4	48	mm	240	46	361
Frame#	Time	TOP_HEAD			R_AC			L_AC			R_ASIS			L_ASIS			R_PSIS			L_PSIS			SACRAL			L_IC			R_IC			L_GT			R_GT			R_LAT_KNEE			R_MED_KNEE			L_MED_KNEE			L_LAT_KNEE			R_TOE			L_TOE			R_1ST_MET			L_1ST_MET			L_5TH_MET			R_5TH_MET			R_LAT_ANK			R_MED_ANK			L_MED_ANK			L_LAT_ANK			L_HEEL_SUP			R_HEEL_SUP			L_HEEL_LAT			R_HEEL_LAT			L_HEEL_MED			R_HEEL_MED			R_LL_PROX_POST			R_LL_PROX_ANT			R_LL_DIST_ANT			R_LL_DIST_POST			R_THIGH_PROX_POST			R_THIGH_PROX_ANT			R_THIGH_DIST_ANT			R_THIGH_DIST_POST			L_PROS_PROX_ANT			L_PROS_PROX_POST			L_PROS_DIST_POST			L_PROS_DIST_ANT			L_THIGH_PROX_ANT			L_THIGH_PROX_POST			L_THIGH_DIST_POST			L_THIGH_DIST_ANT			
		X1	Y1	Z1	X2	Y2	Z2	X3	Y3	Z3	X4	Y4	Z4	X5	Y5	Z5	X6	Y6	Z6	X7	Y7	Z7	X8	Y8	Z8	X9	Y9	Z9	X10	Y10	Z10	X11	Y11	Z11	X12	Y12	Z12	X13	Y13	Z13	X14	Y14	Z14	X15	Y15	Z15	X16	Y16	Z16	X17	Y17	Z17	X18	Y18	Z18	X19	Y19	Z19	X20	Y20	Z20	X21	Y21	Z21	X22	Y22	Z22	X23	Y23	Z23	X24	Y24	Z24	X25	Y25	Z25	X26	Y26	Z26	X27	Y27	Z27	X28	Y28	Z28	X29	Y29	Z29	X30	Y30	Z30	X31	Y31	Z31	X32	Y32	Z32	X33	Y33	Z33	X34	Y34	Z34	X35	Y35	Z35	X36	Y36	Z36	X37	Y37	Z37	X38	Y38	Z38	X39	Y39	Z39	X40	Y40	Z40	X41	Y41	Z41	X42	Y42	Z42	X43	Y43	Z43	X44	Y44	Z44	X45	Y45	Z45	X46	Y46	Z46	X47	Y47	Z47	X48	Y48	Z48	

46	0.18802	-418.94	1756	269.38	-600.13	1536.8	538.16	-707.75	1530	91.79	-628.43	1073.4	545.2	-611.42	1018.4	194.39	-839.74	1084.4	410.98	-827.59	1073.3	280.76	-851.73	1050.3	345.09	-655.27	1136.5	145.91	-654.03	1190.8	541.98	-663.47	934.44	155.58	-713.96	971.68	585.84	-832.39	584.29	529.56	NaN	NaN	NaN	-529.07	563.51	390.84	-550.09	568.6	232.89	-961.67	60.853	423.27	-261.79	113.27	280.37	-1034.3	56.634	376.89	-337.18	75.874	336.15	-365.34	63.184	207.45	-1056	53.466	513.98	-1091.3	183.37	498.21	-1083.3	193.38	398.32	-478.41	127.76	320.65	-507.94	115.05	252.62	-582.59	63.765	291.89	-1190.9	222.45	438.31	-566.44	36.883	260.41	-1203.1	198.85	470.75	-556.24	36.404	324.87	-1199.8	197.44	410.38	-1001.4	479.84	519.63	-947.9	437.76	546.32	-982.4	371.25	530.03	-1027.1	400.61	512.53	-792.44	848.13	559.27	-720.98	849.49	571.74	-739.89	759.84	563.81	-807.3	759.93	549.43	-487.22	497.58	245.01	-540.89	485.51	233.67	-533.76	423.18	240.66	-483.42	441.61	250.69	-563.52	813.38	202.41	-631.27	800.08	181.03	-603.02	731.04	198.56	-541.15	744.18	217.53
47	0.1922	-413.94	1756.3	268.05	-595.07	1537.8	536.96	-702.53	1530.2	90.581	-623.47	1073.8	544.67	-606.88	1019	193.88	-834.86	1084.9	411.17	-822.9	1073.8	280.94	-846.93	1050.8	345.33	-650.52	1136.7	145.47	-648.93	1191.8	541.38	-659.2	934.96	155.37	-708.73	972.02	585.58	-825.43	584.08	530.19	NaN	NaN	NaN	-524.87	563.73	390.16	-545.92	568.84	232.23	-960.89	60.418	423.4	-261.22	111.84	280.23	-1033.1	57.526	376.9	-336.75	74.882	336.11	-365.05	62.309	207.38	-1055.1	54.376	513.95	-1087.5	185.17	498.61	-1079.1	195.23	398.8	-477.55	127.54	320.5	-507.22	114.96	252.5	-582.31	64.029	291.9	-1186	226.31	438.52	-566.27	37.085	260.4	-1198.5	202.87	470.91	-556.06	36.571	324.85	-1195.6	201.71	410.55	-995.05	481.03	519.65	-942.14	438.56	546.77	-977.17	372.3	530.53	-1021.5	402.01	512.65	-786.79	847.92	559.24	-715.35	849.7	571.61	-733.76	759.92	563.91	-801.15	759.61	549.55	-483.62	497.35	244.42	-537.35	485.67	233.08	-530.7	423.29	240.18	-480.24	441.35	250.14	-559.26	813.7	201.82	-627.13	800.54	180.77	-598.96	731.44	198.17	-536.98	744.44	216.83
48	0.19638	-408.98	1756.6	266.73	-590.02	1538.9	535.77	-697.3	1530.3	89.395	-618.57	1074.2	544.17	-602.34	1019.6	193.38	-830.01	1085.4	411.32	-818.22	1074.4	281.07	-842.12	1051.3	345.53	-645.78	1136.9	145.04	-643.92	1192.9	540.77	-654.92	935.47	155.15	-703.52	972.4	585.3	-818.35	583.85	530.88	NaN	NaN	NaN	-520.7	563.93	389.44	-541.8	569.04	231.52	-960.03	59.943	423.56	-260.66	110.41	280.09	-1031.8	58.532	376.94	-336.32	73.893	336.07	-364.76	61.438	207.3	-1054.1	55.382	513.93	-1083.6	187.06	499.04	-1074.7	197.15	399.3	-476.7	127.34	320.34	-506.5	114.86	252.37	-582.03	64.292	291.9	-1180.9	230.28	438.78	-566.08	37.289	260.39	-1193.9	207	471.12	-555.89	36.741	324.84	-1191.2	206.11	410.77	-988.58	482.24	519.71	-936.25	439.37	547.28	-971.8	373.37	531.08	-1015.7	403.44	512.81	-781.1	847.72	559.23	-709.69	849.95	571.49	-727.57	760.04	564.05	-794.95	759.3	549.71	-480.08	497.09	243.77	-533.86	485.81	232.45	-527.68	423.38	239.66	-477.1	441.08	249.54	-555.03	813.98	201.17	-623.01	801	180.46	-594.94	731.83	197.73	-532.86	744.67	216.06
49	0.20056	-404.08	1756.9	265.43	-585.01	1540	534.59	-692.07	1530.5	88.229	-613.73	1074.7	543.69	-597.79	1020.1	192.89	-825.17	1086	411.41	-813.54	1074.9	281.16	-837.31	1051.8	345.68	-641.06	1137.2	144.6	-638.99	1194	540.15	-650.65	935.97	154.93	-698.33	972.83	585	-811.15	583.61	531.62	NaN	NaN	NaN	-516.56	564.12	388.67	-537.74	569.21	230.78	-959.1	59.428	423.74	-260.1	108.96	279.93	-1030.4	59.653	377.01	-335.9	72.905	336.02	-364.48	60.568	207.21	-1053	56.488	513.92	-1079.6	189.01	499.51	-1070.3	199.15	399.84	-475.86	127.14	320.17	-505.76	114.76	252.23	-581.74	64.552	291.91	-1175.6	234.36	439.1	-565.9	37.494	260.39	-1189	211.25	471.38	-555.71	36.915	324.82	-1186.6	210.63	411.06	-981.97	483.46	519.82	-930.22	440.18	547.85	-966.3	374.47	531.68	-1009.8	404.89	513.03	-775.37	847.53	559.23	-704	850.23	571.39	-721.32	760.18	564.22	-788.7	758.99	549.91	-476.58	496.81	243.09	-530.42	485.92	231.79	-524.69	423.44	239.1	-474.01	440.78	248.92	-550.81	814.24	200.47	-618.91	801.45	180.11	-590.96	732.2	197.24	-528.77	744.87	215.22
